<svg width="26" height="13" viewBox="0 0 26 13" fill="none" xmlns="http://www.w3.org/2000/svg">
<path d="M24.1953 0.290309L12.9989 10.6103L1.80238 0.290309C1.60234 0.105553 1.33379 0.00211807 1.05416 0.00211807C0.774521 0.00211807 0.505979 0.105553 0.305935 0.290309C0.209074 0.380046 0.132123 0.487156 0.079591 0.605366C0.0270585 0.723576 0 0.85051 0 0.978733C0 1.10696 0.0270585 1.23389 0.079591 1.3521C0.132123 1.47031 0.209074 1.57742 0.305935 1.66716L12.217 12.648C12.4262 12.8408 12.7068 12.9487 12.9989 12.9487C13.291 12.9487 13.5715 12.8408 13.7807 12.648L25.6918 1.66928C25.7893 1.57947 25.8668 1.4721 25.9198 1.3535C25.9727 1.23489 26 1.10747 26 0.978733C26 0.85 25.9727 0.722571 25.9198 0.603969C25.8668 0.485367 25.7893 0.377995 25.6918 0.28819C25.4917 0.103434 25.2232 0 24.9436 0C24.6639 0 24.3954 0.103434 24.1953 0.28819V0.290309Z" fill="white"/>
</svg>
