<svg width="15" height="18" viewBox="0 0 15 18" fill="none" xmlns="http://www.w3.org/2000/svg">
<path d="M6.9425 11.9617C6.82865 12.0923 6.76566 12.2671 6.76708 12.4487C6.7685 12.6302 6.83423 12.8038 6.95011 12.9322C7.06599 13.0605 7.22275 13.1334 7.38662 13.1349C7.5505 13.1365 7.70837 13.0667 7.82625 12.9406L11.16 9.234C11.1891 9.20185 11.2122 9.16365 11.2279 9.12159C11.2437 9.07954 11.2518 9.03445 11.2518 8.98892C11.2518 8.94339 11.2437 8.89831 11.2279 8.85625C11.2122 8.8142 11.1891 8.776 11.16 8.74385L7.82625 5.03862C7.70837 4.91251 7.5505 4.84272 7.38662 4.8443C7.22275 4.84588 7.06599 4.91869 6.95011 5.04705C6.83423 5.17541 6.7685 5.34905 6.76708 5.53057C6.76566 5.71209 6.82865 5.88697 6.9425 6.01754L9 8.30769H0.625C0.45924 8.30769 0.300268 8.38063 0.183058 8.51046C0.065848 8.6403 0 8.81639 0 9C0 9.18361 0.065848 9.3597 0.183058 9.48954C0.300268 9.61937 0.45924 9.69231 0.625 9.69231H9L6.9425 11.9617ZM13.75 0H5.625C5.45924 0 5.30027 0.0729393 5.18306 0.202772C5.06585 0.332605 5 0.508696 5 0.692308C5 0.875919 5.06585 1.05201 5.18306 1.18184C5.30027 1.31168 5.45924 1.38462 5.625 1.38462H13.125C13.2908 1.38462 13.4497 1.45755 13.5669 1.58739C13.6842 1.71722 13.75 1.89331 13.75 2.07692V15.9231C13.75 16.1067 13.6842 16.2828 13.5669 16.4126C13.4497 16.5424 13.2908 16.6154 13.125 16.6154H5.3125C5.14674 16.6154 4.98777 16.6883 4.87056 16.8182C4.75335 16.948 4.6875 17.1241 4.6875 17.3077C4.6875 17.4913 4.75335 17.6674 4.87056 17.7972C4.98777 17.9271 5.14674 18 5.3125 18H13.75C14.0815 18 14.3995 17.8541 14.6339 17.5945C14.8683 17.3348 15 16.9826 15 16.6154V1.38462C15 1.01739 14.8683 0.66521 14.6339 0.405544C14.3995 0.145879 14.0815 0 13.75 0Z" fill="#4170FF"/>
</svg>
